<svg width="459" height="83" viewBox="0 0 459 83" fill="none" xmlns="http://www.w3.org/2000/svg">
<path d="M30.3 60.5C27.6667 60.5 25.2333 60.0667 23 59.2C20.8 58.3 18.8833 57.05 17.25 55.45C15.6167 53.8167 14.35 51.9 13.45 49.7C12.5833 47.4667 12.15 45.0167 12.15 42.35C12.15 39.75 12.6167 37.35 13.55 35.15C14.4833 32.95 15.7667 31.05 17.4 29.45C19.0667 27.8167 21.0167 26.55 23.25 25.65C25.5167 24.75 27.9833 24.3 30.65 24.3C32.3167 24.3 33.95 24.5167 35.55 24.95C37.15 25.3833 38.6333 26.0333 40 26.9C41.4 27.7333 42.6 28.7333 43.6 29.9L38.4 35.85C37.7 35.1167 36.95 34.4833 36.15 33.95C35.3833 33.3833 34.5333 32.95 33.6 32.65C32.6667 32.35 31.6667 32.2 30.6 32.2C29.2667 32.2 28 32.45 26.8 32.95C25.6333 33.4167 24.6 34.1 23.7 35C22.8333 35.8667 22.15 36.9333 21.65 38.2C21.15 39.4667 20.9 40.8833 20.9 42.45C20.9 43.9833 21.15 45.3833 21.65 46.65C22.15 47.8833 22.85 48.95 23.75 49.85C24.65 50.75 25.7333 51.4333 27 51.9C28.3 52.3667 29.7333 52.6 31.3 52.6C32.3667 52.6 33.3833 52.45 34.35 52.15C35.3167 51.85 36.2 51.45 37 50.95C37.8333 50.4167 38.5667 49.8167 39.2 49.15L43.3 55.65C42.4667 56.5833 41.35 57.4167 39.95 58.15C38.5833 58.8833 37.05 59.4667 35.35 59.9C33.6833 60.3 32 60.5 30.3 60.5ZM60.7668 60.5C58.0001 60.5 55.5335 59.9 53.3668 58.7C51.2335 57.5 49.5335 55.8667 48.2668 53.8C47.0335 51.7333 46.4168 49.3667 46.4168 46.7C46.4168 44.0333 47.0335 41.6667 48.2668 39.6C49.5335 37.5333 51.2335 35.9 53.3668 34.7C55.5335 33.5 58.0001 32.9 60.7668 32.9C63.5335 32.9 65.9835 33.5 68.1168 34.7C70.2835 35.9 71.9835 37.5333 73.2168 39.6C74.4501 41.6667 75.0668 44.0333 75.0668 46.7C75.0668 49.3667 74.4501 51.7333 73.2168 53.8C71.9835 55.8667 70.2835 57.5 68.1168 58.7C65.9835 59.9 63.5335 60.5 60.7668 60.5ZM60.7668 53.6C61.9668 53.6 63.0335 53.3 63.9668 52.7C64.9001 52.1 65.6335 51.2833 66.1668 50.25C66.7001 49.2167 66.9501 48.0333 66.9168 46.7C66.9501 45.3667 66.7001 44.1833 66.1668 43.15C65.6335 42.0833 64.9001 41.25 63.9668 40.65C63.0335 40.05 61.9668 39.75 60.7668 39.75C59.5668 39.75 58.4835 40.05 57.5168 40.65C56.5835 41.25 55.8501 42.0833 55.3168 43.15C54.7835 44.1833 54.5335 45.3667 54.5668 46.7C54.5335 48.0333 54.7835 49.2167 55.3168 50.25C55.8501 51.2833 56.5835 52.1 57.5168 52.7C58.4835 53.3 59.5668 53.6 60.7668 53.6ZM89.348 60.55C87.3814 60.55 85.698 60.1333 84.298 59.3C82.9314 58.4333 81.8647 57.2 81.098 55.6C80.3647 54 79.998 52.0833 79.998 49.85V33.45H88.048V48.75C88.048 49.8167 88.2147 50.7333 88.548 51.5C88.8814 52.2667 89.3814 52.8667 90.048 53.3C90.7147 53.7 91.5147 53.9 92.448 53.9C93.148 53.9 93.7814 53.7833 94.348 53.55C94.948 53.3167 95.448 53 95.848 52.6C96.2814 52.1667 96.6147 51.6833 96.848 51.15C97.0814 50.5833 97.198 49.9667 97.198 49.3V33.45H105.248V60H97.698L97.348 54.55L98.848 53.95C98.448 55.2167 97.7814 56.35 96.848 57.35C95.9147 58.3167 94.798 59.1 93.498 59.7C92.198 60.2667 90.8147 60.55 89.348 60.55ZM120.528 60L109.428 33.45H118.278L124.878 53.3L122.928 53.5L129.728 33.45H138.478L126.828 60H120.528ZM142.652 60V33.45H150.252L150.602 42.1L149.102 40.45C149.502 39.0167 150.152 37.7333 151.052 36.6C151.985 35.4667 153.068 34.5667 154.302 33.9C155.535 33.2333 156.852 32.9 158.252 32.9C158.852 32.9 159.402 32.95 159.902 33.05C160.435 33.15 160.918 33.2667 161.352 33.4L159.152 42.25C158.785 42.0167 158.285 41.8333 157.652 41.7C157.052 41.5333 156.418 41.45 155.752 41.45C155.018 41.45 154.335 41.5833 153.702 41.85C153.068 42.0833 152.535 42.4333 152.102 42.9C151.668 43.3667 151.318 43.9167 151.052 44.55C150.818 45.1833 150.702 45.9 150.702 46.7V60H142.652ZM176.932 60.5C173.999 60.5 171.449 59.9167 169.282 58.75C167.116 57.55 165.432 55.9333 164.232 53.9C163.032 51.8333 162.432 49.4833 162.432 46.85C162.432 44.8167 162.766 42.95 163.432 41.25C164.099 39.55 165.032 38.0833 166.232 36.85C167.432 35.5833 168.849 34.6167 170.482 33.95C172.149 33.25 173.966 32.9 175.932 32.9C177.799 32.9 179.499 33.2333 181.032 33.9C182.599 34.5667 183.949 35.5 185.082 36.7C186.216 37.9 187.082 39.3167 187.682 40.95C188.282 42.5833 188.549 44.3667 188.482 46.3L188.432 48.45H167.282L166.132 43.95H181.932L181.082 44.9V43.9C181.016 43.0667 180.749 42.3333 180.282 41.7C179.849 41.0333 179.266 40.5167 178.532 40.15C177.799 39.7833 176.966 39.6 176.032 39.6C174.732 39.6 173.616 39.8667 172.682 40.4C171.782 40.9 171.099 41.65 170.632 42.65C170.166 43.6167 169.932 44.8167 169.932 46.25C169.932 47.7167 170.232 49 170.832 50.1C171.466 51.1667 172.366 52 173.532 52.6C174.732 53.2 176.149 53.5 177.782 53.5C178.916 53.5 179.916 53.3333 180.782 53C181.682 52.6667 182.649 52.1 183.682 51.3L187.432 56.6C186.399 57.5 185.299 58.2333 184.132 58.8C182.966 59.3667 181.766 59.7833 180.532 60.05C179.332 60.35 178.132 60.5 176.932 60.5ZM202.629 60.55C200.663 60.55 198.979 60.1333 197.579 59.3C196.213 58.4333 195.146 57.2 194.379 55.6C193.646 54 193.279 52.0833 193.279 49.85V33.45H201.329V48.75C201.329 49.8167 201.496 50.7333 201.829 51.5C202.163 52.2667 202.663 52.8667 203.329 53.3C203.996 53.7 204.796 53.9 205.729 53.9C206.429 53.9 207.063 53.7833 207.629 53.55C208.229 53.3167 208.729 53 209.129 52.6C209.563 52.1667 209.896 51.6833 210.129 51.15C210.363 50.5833 210.479 49.9667 210.479 49.3V33.45H218.529V60H210.979L210.629 54.55L212.129 53.95C211.729 55.2167 211.063 56.35 210.129 57.35C209.196 58.3167 208.079 59.1 206.779 59.7C205.479 60.2667 204.096 60.55 202.629 60.55ZM225.659 60V33.45H233.259L233.609 42.1L232.109 40.45C232.509 39.0167 233.159 37.7333 234.059 36.6C234.993 35.4667 236.076 34.5667 237.309 33.9C238.543 33.2333 239.859 32.9 241.259 32.9C241.859 32.9 242.409 32.95 242.909 33.05C243.443 33.15 243.926 33.2667 244.359 33.4L242.159 42.25C241.793 42.0167 241.293 41.8333 240.659 41.7C240.059 41.5333 239.426 41.45 238.759 41.45C238.026 41.45 237.343 41.5833 236.709 41.85C236.076 42.0833 235.543 42.4333 235.109 42.9C234.676 43.3667 234.326 43.9167 234.059 44.55C233.826 45.1833 233.709 45.9 233.709 46.7V60H225.659Z" fill="#F97316"/>
<path d="M265.279 60V25H273.779V52.5H289.379V60H265.279ZM306.571 60.5C303.638 60.5 301.088 59.9167 298.921 58.75C296.754 57.55 295.071 55.9333 293.871 53.9C292.671 51.8333 292.071 49.4833 292.071 46.85C292.071 44.8167 292.404 42.95 293.071 41.25C293.738 39.55 294.671 38.0833 295.871 36.85C297.071 35.5833 298.488 34.6167 300.121 33.95C301.788 33.25 303.604 32.9 305.571 32.9C307.438 32.9 309.138 33.2333 310.671 33.9C312.238 34.5667 313.588 35.5 314.721 36.7C315.854 37.9 316.721 39.3167 317.321 40.95C317.921 42.5833 318.188 44.3667 318.121 46.3L318.071 48.45H296.921L295.771 43.95H311.571L310.721 44.9V43.9C310.654 43.0667 310.388 42.3333 309.921 41.7C309.488 41.0333 308.904 40.5167 308.171 40.15C307.438 39.7833 306.604 39.6 305.671 39.6C304.371 39.6 303.254 39.8667 302.321 40.4C301.421 40.9 300.738 41.65 300.271 42.65C299.804 43.6167 299.571 44.8167 299.571 46.25C299.571 47.7167 299.871 49 300.471 50.1C301.104 51.1667 302.004 52 303.171 52.6C304.371 53.2 305.788 53.5 307.421 53.5C308.554 53.5 309.554 53.3333 310.421 53C311.321 52.6667 312.288 52.1 313.321 51.3L317.071 56.6C316.038 57.5 314.938 58.2333 313.771 58.8C312.604 59.3667 311.404 59.7833 310.171 60.05C308.971 60.35 307.771 60.5 306.571 60.5ZM324.868 60V32.15C324.868 30.4167 325.235 28.85 325.968 27.45C326.735 26.05 327.785 24.95 329.118 24.15C330.485 23.3167 332.068 22.9 333.868 22.9C335.135 22.9 336.301 23.0833 337.368 23.45C338.435 23.8167 339.385 24.3333 340.218 25L337.918 30.85C337.485 30.6167 337.068 30.4333 336.668 30.3C336.268 30.1667 335.901 30.1 335.568 30.1C334.968 30.1 334.468 30.2 334.068 30.4C333.668 30.6 333.368 30.9167 333.168 31.35C333.001 31.75 332.918 32.25 332.918 32.85V60H328.918C328.018 60 327.218 60 326.518 60C325.851 60 325.301 60 324.868 60ZM321.018 40.8V34.2H338.368V40.8H321.018ZM354.52 60.5C351.587 60.5 349.037 59.9167 346.87 58.75C344.704 57.55 343.02 55.9333 341.82 53.9C340.62 51.8333 340.02 49.4833 340.02 46.85C340.02 44.8167 340.354 42.95 341.02 41.25C341.687 39.55 342.62 38.0833 343.82 36.85C345.02 35.5833 346.437 34.6167 348.07 33.95C349.737 33.25 351.554 32.9 353.52 32.9C355.387 32.9 357.087 33.2333 358.62 33.9C360.187 34.5667 361.537 35.5 362.67 36.7C363.804 37.9 364.67 39.3167 365.27 40.95C365.87 42.5833 366.137 44.3667 366.07 46.3L366.02 48.45H344.87L343.72 43.95H359.52L358.67 44.9V43.9C358.604 43.0667 358.337 42.3333 357.87 41.7C357.437 41.0333 356.854 40.5167 356.12 40.15C355.387 39.7833 354.554 39.6 353.62 39.6C352.32 39.6 351.204 39.8667 350.27 40.4C349.37 40.9 348.687 41.65 348.22 42.65C347.754 43.6167 347.52 44.8167 347.52 46.25C347.52 47.7167 347.82 49 348.42 50.1C349.054 51.1667 349.954 52 351.12 52.6C352.32 53.2 353.737 53.5 355.37 53.5C356.504 53.5 357.504 53.3333 358.37 53C359.27 52.6667 360.237 52.1 361.27 51.3L365.02 56.6C363.987 57.5 362.887 58.2333 361.72 58.8C360.554 59.3667 359.354 59.7833 358.12 60.05C356.92 60.35 355.72 60.5 354.52 60.5ZM356.47 30.5L346.22 25L349.87 19.8L358.82 26.9L356.47 30.5ZM378.829 60L367.729 33.45H376.579L383.179 53.3L381.229 53.5L388.029 33.45H396.779L385.129 60H378.829ZM400.952 60V33.45H408.552L408.902 42.1L407.402 40.45C407.802 39.0167 408.452 37.7333 409.352 36.6C410.286 35.4667 411.369 34.5667 412.602 33.9C413.836 33.2333 415.152 32.9 416.552 32.9C417.152 32.9 417.702 32.95 418.202 33.05C418.736 33.15 419.219 33.2667 419.652 33.4L417.452 42.25C417.086 42.0167 416.586 41.8333 415.952 41.7C415.352 41.5333 414.719 41.45 414.052 41.45C413.319 41.45 412.636 41.5833 412.002 41.85C411.369 42.0833 410.836 42.4333 410.402 42.9C409.969 43.3667 409.619 43.9167 409.352 44.55C409.119 45.1833 409.002 45.9 409.002 46.7V60H400.952ZM435.233 60.5C432.3 60.5 429.75 59.9167 427.583 58.75C425.417 57.55 423.733 55.9333 422.533 53.9C421.333 51.8333 420.733 49.4833 420.733 46.85C420.733 44.8167 421.067 42.95 421.733 41.25C422.4 39.55 423.333 38.0833 424.533 36.85C425.733 35.5833 427.15 34.6167 428.783 33.95C430.45 33.25 432.267 32.9 434.233 32.9C436.1 32.9 437.8 33.2333 439.333 33.9C440.9 34.5667 442.25 35.5 443.383 36.7C444.517 37.9 445.383 39.3167 445.983 40.95C446.583 42.5833 446.85 44.3667 446.783 46.3L446.733 48.45H425.583L424.433 43.95H440.233L439.383 44.9V43.9C439.317 43.0667 439.05 42.3333 438.583 41.7C438.15 41.0333 437.567 40.5167 436.833 40.15C436.1 39.7833 435.267 39.6 434.333 39.6C433.033 39.6 431.917 39.8667 430.983 40.4C430.083 40.9 429.4 41.65 428.933 42.65C428.467 43.6167 428.233 44.8167 428.233 46.25C428.233 47.7167 428.533 49 429.133 50.1C429.767 51.1667 430.667 52 431.833 52.6C433.033 53.2 434.45 53.5 436.083 53.5C437.217 53.5 438.217 53.3333 439.083 53C439.983 52.6667 440.95 52.1 441.983 51.3L445.733 56.6C444.7 57.5 443.6 58.2333 442.433 58.8C441.267 59.3667 440.067 59.7833 438.833 60.05C437.633 60.35 436.433 60.5 435.233 60.5Z" fill="black"/>
</svg>
